<?xml version="1.0" encoding="UTF-8" standalone="no"?>
<!-- Generator: Adobe Illustrator 18.0.0, SVG Export Plug-In . SVG Version: 6.00 Build 0)  -->

<svg
   xmlns:dc="http://purl.org/dc/elements/1.1/"
   xmlns:cc="http://creativecommons.org/ns#"
   xmlns:rdf="http://www.w3.org/1999/02/22-rdf-syntax-ns#"
   xmlns:svg="http://www.w3.org/2000/svg"
   xmlns="http://www.w3.org/2000/svg"
   xmlns:sodipodi="http://sodipodi.sourceforge.net/DTD/sodipodi-0.dtd"
   xmlns:inkscape="http://www.inkscape.org/namespaces/inkscape"
   version="1.1"
   id="Capa_1"
   x="0px"
   y="0px"
   viewBox="0 0 512 512"
   style="enable-background:new 0 0 512 512;"
   xml:space="preserve"
   inkscape:version="0.91 r13725"
   sodipodi:docname="back-button.svg"><metadata
     id="metadata39"><rdf:RDF><cc:Work
         rdf:about=""><dc:format>image/svg+xml</dc:format><dc:type
           rdf:resource="http://purl.org/dc/dcmitype/StillImage" /><dc:title></dc:title></cc:Work></rdf:RDF></metadata><defs
     id="defs37" /><sodipodi:namedview
     pagecolor="#ffffff"
     bordercolor="#666666"
     borderopacity="1"
     objecttolerance="10"
     gridtolerance="10"
     guidetolerance="10"
     inkscape:pageopacity="0"
     inkscape:pageshadow="2"
     inkscape:window-width="640"
     inkscape:window-height="480"
     id="namedview35"
     showgrid="false"
     inkscape:zoom="0.4609375"
     inkscape:cx="256"
     inkscape:cy="256"
     inkscape:window-x="125"
     inkscape:window-y="51"
     inkscape:window-maximized="0"
     inkscape:current-layer="Capa_1" /><path
     d="M 256,512 C 397.385,512 512,397.385 512,256 512,114.615 397.385,0 256,0 114.615,0 0,114.615 0,256 0,397.385 114.615,512 256,512 Z m -24.875,-269.313 96,-64 C 329.801,176.906 332.898,176 336,176 c 2.59,0 5.184,0.625 7.551,1.891 5.203,2.789 8.449,8.211 8.449,14.109 l 0,128 c 0,5.898 -3.246,11.32 -8.449,14.109 -5.203,2.773 -11.516,2.484 -16.426,-0.797 l -96,-64 C 226.672,266.344 224,261.352 224,256 c 0,-5.352 2.672,-10.344 7.125,-13.313 z M 144,192 c 0,-8.836 7.164,-16 16,-16 l 16,0 c 8.836,0 16,7.164 16,16 l 0,128 c 0,8.836 -7.164,16 -16,16 l -16,0 c -8.836,0 -16,-7.164 -16,-16 l 0,-128 z"
     id="path3"
     inkscape:connector-curvature="0" /><g
     id="g5" /><g
     id="g7" /><g
     id="g9" /><g
     id="g11" /><g
     id="g13" /><g
     id="g15" /><g
     id="g17" /><g
     id="g19" /><g
     id="g21" /><g
     id="g23" /><g
     id="g25" /><g
     id="g27" /><g
     id="g29" /><g
     id="g31" /><g
     id="g33" /></svg>